# xmcd
#
# Track frame offsets:
#	150
#	18804
#	34134
#	48472
#	69060
#	80969
#	94621
#	108425
#	126773
#	143624
#	154809
#	165900
#	179108
#	199503
#	212872
#	229418
#
# Disc length: 3346 seconds
#
# Revision: 0
# Processed by: cddbd v1.5.1PL0 Copyright (c) Steve Scherf et al.
# Submitted via: EasyCDDAExtractor 4.6.9.1
#
DISCID=d50d1010
DTITLE=Davi Frizzell - 16 Super Hits
DYEAR=2003
DGENRE=Country
TTITLE0=I'm Gonna Hire A Wino To Decorate Our Home
TTITLE1=You're The Reason God Made Oklahoma
TTITLE2=18 Wheels Hummin' Home Sweet Home
TTITLE3=I'm Thinking Tonight Of My BLue Eyes
TTITLE4=Lovesick Blues
TTITLE5=Sunny Side Of The Mountain
TTITLE6=Truck Driver's Blues
TTITLE7=Home, Home On The Road
TTITLE8=Ballad Of The Bootlegger King
TTITLE9=Boll Weevil Song
TTITLE10=Set 'Em Up Joe
TTITLE11=California Turnarounds
TTITLE12=Frankie And Johnny
TTITLE13=Little Lord Jesus
TTITLE14=Prisoner's Song
TTITLE15=Red River Valley
EXTD=
EXTT0=
EXTT1=
EXTT2=
EXTT3=
EXTT4=
EXTT5=
EXTT6=
EXTT7=
EXTT8=
EXTT9=
EXTT10=
EXTT11=
EXTT12=
EXTT13=
EXTT14=
EXTT15=
PLAYORDER=
